<svg id="Calque_1" data-name="Calque 1" xmlns="http://www.w3.org/2000/svg" viewBox="0 0 432 432"><defs><style>.cls-1{fill:#1d252b;}.cls-2{fill:#96acbb;}.cls-3{fill:#f7aa00;}.cls-4{fill:#a3b1bc;}.cls-5{fill:#282828;}</style></defs><title>11_100_REDO_January_2017_LoveSVG</title><path class="cls-1" d="M348.39,345c-.3,1-.53,1.86-.83,2.71s-.67,1.79-1.07,2.66c-2,4.29-5.67,5.39-9.67,4.63a13.35,13.35,0,0,1-7.21-4.39,27.14,27.14,0,0,1-7.14-14.76c-.79-5.13-1.3-10.28-1.79-15.44a30.58,30.58,0,0,0-.71-5,4.86,4.86,0,0,0-2.92-3.56c-.43.29-.29.65-.3.95,0,2.61-.05,5.23,0,7.84.08,7.38-.12,14.76-.29,22.13,0,1.91,0,3.82,0,5.73,0,2.89-1.83,3.81-3.62,4.13A6.27,6.27,0,0,1,309,352a4.48,4.48,0,0,1-2.73-3.45c-.46-2.7-.62-5.43-.91-8.15-1.29-12.29-.72-24.6-.49-36.91a41,41,0,0,1,.68-7.42,9.62,9.62,0,0,1,.24-1,4.89,4.89,0,0,1,6.67-3.35,6.36,6.36,0,0,1,4.35,5.68,46.34,46.34,0,0,1,.09,7.45c-.06,1.85-.07,1.84,1.78,1.7a63.93,63.93,0,0,0,12.56-2.34c.8-.23,1.6-.42,2.42-.58a4.77,4.77,0,0,1,3.15.38,1.82,1.82,0,0,1,1.17,1.62,1.7,1.7,0,0,1-1.09,1.54,26,26,0,0,1-4.75,1.82,35.93,35.93,0,0,1-6.58,1.28,2.37,2.37,0,0,0-.95.19c-.1.41.24.51.44.67a21.59,21.59,0,0,1,8,14.56c.52,3.86.93,7.74,1.69,11.56.49,2.48,1,5,1.49,7.43a17.41,17.41,0,0,0,1.52,4.33,5.17,5.17,0,0,0,1.55,1.92,1.32,1.32,0,0,0,2.06-.25,7.4,7.4,0,0,0,1.11-1.93,17.71,17.71,0,0,0,1.16-4.69c.22-1.64.33-3.3.53-4.95a24.28,24.28,0,0,0-.55-6.9,64.41,64.41,0,0,1,.84-27,20.94,20.94,0,0,1,2.73-6.5,12.35,12.35,0,0,1,11.74-5.86,11.84,11.84,0,0,1,7.25,2.93,17.28,17.28,0,0,1,6.11,13A6.74,6.74,0,0,1,368.9,315a18.81,18.81,0,0,1-6.83,2.53,27.84,27.84,0,0,1-6.31.47c-1.05,0-1.07,0-1.12,1.09a57.13,57.13,0,0,0,.53,10.29,73.51,73.51,0,0,0,2.26,10.06c.33,1.15.56,2.33.87,3.5a11.66,11.66,0,0,0,2.2,4.41,9.41,9.41,0,0,0,1.78,1.73,4,4,0,0,0,5.36-.05,11.44,11.44,0,0,0,3.35-4.26,24.71,24.71,0,0,0,1.93-6.41,23.84,23.84,0,0,0,.47-5.06,8.16,8.16,0,0,1,.38-2.32,1.89,1.89,0,0,1,2-1.31,1.71,1.71,0,0,1,1.84,1.36,7.44,7.44,0,0,1,.36,1.82A28.51,28.51,0,0,1,374.36,347a17.07,17.07,0,0,1-2.6,3.33A11.42,11.42,0,0,1,360,353.45a19.26,19.26,0,0,1-8.85-5.54C350.24,347,349.36,346,348.39,345Zm9.85-30.57v.05c.83-.06,1.66-.09,2.48-.2a14.38,14.38,0,0,0,4.54-1.19,5,5,0,0,0,2.83-3.69A8.12,8.12,0,0,0,368,306a10.48,10.48,0,0,0-3.89-6.58c-2.06-1.51-3.23-1.27-4.59.86a32.28,32.28,0,0,0-4.42,13.32c-.08.57.18.75.67.75Z"/><path class="cls-1" d="M285.55,297.12c.06-.21.12-.37.16-.53.75-3,3.35-4.23,6.37-3.61a6.21,6.21,0,0,1,5,5.34,31.55,31.55,0,0,1,.14,7.07c-.16,3.07-.18,6.13-.16,9.2,0,4.27.16,8.54-.07,12.8-.18,3.43-.52,6.86-.79,10.28,0,.5-.1,1-.11,1.49-.06,3.23-.26,6.45-.49,9.67a3.53,3.53,0,0,1-2.14,3.11,5.8,5.8,0,0,1-5.39,0,3.38,3.38,0,0,1-2-3.07c-.08-2.19-.21-4.38-.24-6.58-.06-4.89-.59-9.75-.78-14.64a.64.64,0,0,0-.09-.22c-.38.17-.32.55-.4.85a84.5,84.5,0,0,1-3,9.21,17.83,17.83,0,0,1-4,6.36,7.08,7.08,0,0,1-6,2.07,9.07,9.07,0,0,1-3.4-1.14,21.55,21.55,0,0,1-7.91-7.38,32.38,32.38,0,0,1-4.77-14.12,40.91,40.91,0,0,1,1-15.77,20.09,20.09,0,0,1,2.49-5.81c3.79-5.78,9.13-8.78,16.11-8.5a17.82,17.82,0,0,1,9.26,3.27A3.36,3.36,0,0,0,285.55,297.12Zm-18.1,21a62.47,62.47,0,0,0,1.09,10.81,50.73,50.73,0,0,0,2.78,10.17,7.93,7.93,0,0,0,1.59,2.64c.59.61.83.61,1.46,0a8.83,8.83,0,0,0,1.65-2.32,38,38,0,0,0,2.66-6.82c2.5-8.17,3.89-16.61,6.08-24.86a1.27,1.27,0,0,0-.11-1.06,16.75,16.75,0,0,0-4.45-5.13c-2.16-1.54-3.63-1.57-5.83-.14l-.51.36a14.08,14.08,0,0,0-5.11,7.31A27.37,27.37,0,0,0,267.45,318.08Z"/><path class="cls-1" d="M219.75,321.74c-.08-5.66.12-10,1.21-14.33a19,19,0,0,1,4.28-8.31,14.85,14.85,0,0,1,20.34-1.72,17.32,17.32,0,0,1,6.62,10.49,6,6,0,0,1-.3,3.9,1.88,1.88,0,0,1-2.15,1.29,1.85,1.85,0,0,1-1.69-1.84c-.17-1.31-.25-2.64-.47-4a11.14,11.14,0,0,0-5-7.54c-2.14-1.45-4.12-1.17-5.94.66a11.1,11.1,0,0,0-2.51,4.38c-2.27,6.55-2.59,13.28-2.07,20.12a58,58,0,0,0,3.82,15.76,27.18,27.18,0,0,0,1.84,3.8,8.51,8.51,0,0,0,2.23,2.65,1.5,1.5,0,0,0,2.32-.07,7.58,7.58,0,0,0,2.1-3.33,30.78,30.78,0,0,0,1.22-5.7c.28-2,.49-3.94.78-5.91a1.79,1.79,0,0,1,1.94-1.69,1.51,1.51,0,0,1,1.73,1.65,36.16,36.16,0,0,1-1.69,12,15.63,15.63,0,0,1-1.9,3.76,8.21,8.21,0,0,1-9.39,3.64,19.78,19.78,0,0,1-10.2-6.54,27.67,27.67,0,0,1-6.11-13.67A69.7,69.7,0,0,1,219.75,321.74Z"/><path class="cls-1" d="M146.42,322.85a7.62,7.62,0,0,0,.72-1.79q3.38-10.6,6.74-21.2a17.82,17.82,0,0,1,2-4.27,7.82,7.82,0,0,1,3.55-3,4.87,4.87,0,0,1,6.57,2.87,12.26,12.26,0,0,1,.49,2.69,35.93,35.93,0,0,1-.33,8.79,45.3,45.3,0,0,0-.36,5.33c-.11,7.21-.09,14.43-.37,21.64-.15,4-.41,7.94-.61,11.91-.09,1.95-.09,3.9-.27,5.84a3.59,3.59,0,0,1-2.83,3.49,5.78,5.78,0,0,1-2.83.11A3.33,3.33,0,0,1,156,352a60.45,60.45,0,0,1-.2-6.46c-.06-3.64,0-7.29,0-10.94,0-5.1-.11-10.2-.15-15.29,0-1.83,0-3.65.11-5.47,0-.31,0-.62,0-.95-.45.13-.43.47-.52.73-1.22,3.25-2.42,6.52-3.64,9.78-1,2.71-2,5.42-3.1,8.12a3,3,0,0,1-2.89,1.82,5.28,5.28,0,0,1-4.59-2,12.74,12.74,0,0,1-1.56-2.54c-3.48-7.06-6.86-14.17-9.82-21.47-.1-.25-.11-.58-.53-.79.07,1,.11,1.9.21,2.81.46,4.69.89,9.39,1.21,14.1.26,3.8.6,7.6.86,11.4.14,1.94.23,3.89.28,5.83.08,3.11.25,6.21.49,9.31a11,11,0,0,1,0,1.62,2.08,2.08,0,0,1-2.1,2,1.92,1.92,0,0,1-2.23-1.68,36.87,36.87,0,0,1-.55-4.68c-.39-4.17-.71-8.34-1.1-12.51-.38-4-.82-8-1.07-12-.06-.87-.11-1.74-.16-2.61,0-.36-.09-.66-.56-.63l-4.5.27a72.3,72.3,0,0,1,.32,7.74,33.36,33.36,0,0,1-2.71,13.18,21.29,21.29,0,0,1-4.53,6.64c-4.12,3.94-8.85,4.79-14.1,2.65a22.2,22.2,0,0,1-9.23-7.53,21,21,0,0,1-3.94-10.58,67.18,67.18,0,0,1-.51-10.42,12.25,12.25,0,0,1,.45-3.07,4.85,4.85,0,0,1,3.53-3.51,6.58,6.58,0,0,1,5.38.73,5.34,5.34,0,0,1,2.56,4.46c.11,1.86.19,3.72.22,5.59a47,47,0,0,0,1.65,11.66c.33,1.23.48,2.52.89,3.74a10,10,0,0,0,3,4.53,4.18,4.18,0,0,0,5.87.17,12.16,12.16,0,0,0,3.48-4.31,30,30,0,0,0,2.86-9.73,47.38,47.38,0,0,0,0-11.29c-.11-1.05-.11-1.05-1.17-1.19a40.37,40.37,0,0,1-10-2.51,15.73,15.73,0,0,1-5.74-3.84,8.64,8.64,0,0,1-.92-10.87,9,9,0,0,1,8.52-3.62,10.78,10.78,0,0,1,6.89,3.36,22.37,22.37,0,0,1,5.11,8.72,39.88,39.88,0,0,1,1.3,4.79c.2.95.22,1,1.23,1,1.2,0,2.4,0,3.6,0,.81,0,.84,0,.79-.87-.19-3.56-.42-7.11-.59-10.67-.2-4.1-.72-8.18-.59-12.29a4.85,4.85,0,0,1,1.16-3.33,4.66,4.66,0,0,1,5.57-1.08,10,10,0,0,1,4.42,4.4,41.61,41.61,0,0,1,2.42,5.31c1.34,3.52,2.77,7,4.08,10.55,1.62,4.39,3.15,8.81,4.73,13.22A3.45,3.45,0,0,0,146.42,322.85Zm-32.36-7.22a1.35,1.35,0,0,0,0-.39,34.77,34.77,0,0,0-2.57-7.9,13.64,13.64,0,0,0-2.79-3.94,6.63,6.63,0,0,0-3-1.68,3.19,3.19,0,0,0-2.51.36,4.75,4.75,0,0,0-2.48,4.05,6.79,6.79,0,0,0,2.32,5.42,10.5,10.5,0,0,0,3.35,2.09,28.58,28.58,0,0,0,5.33,1.65A9.43,9.43,0,0,0,114.06,315.63Z"/><path class="cls-1" d="M192.5,317.86h-9c-1.06,0-1.07,0-1.12,1.13a51.28,51.28,0,0,0,.46,9.18,71.83,71.83,0,0,0,2,10.48,28.43,28.43,0,0,0,3,7.06,11,11,0,0,0,3.52,3.63,5.17,5.17,0,0,0,5.21.31,8.49,8.49,0,0,0,4.36-4.88,18.93,18.93,0,0,0,1.2-5.19,24.31,24.31,0,0,0,.12-5.59,6.1,6.1,0,0,1,.21-2.21,1.71,1.71,0,0,1,1.71-1.36,1.75,1.75,0,0,1,2,1.17,4.26,4.26,0,0,1,.29,1.46,46.6,46.6,0,0,1-.93,10.13,18.7,18.7,0,0,1-.92,2.83c-2.38,6-8.35,8.62-14.1,7.7-4.38-.7-7.8-3.1-10.75-6.27a32.73,32.73,0,0,1-6.61-11.86,44.35,44.35,0,0,1-1.95-21.7,25.6,25.6,0,0,1,6-13.31,14.06,14.06,0,0,1,12.13-5.12A18.07,18.07,0,0,1,202.07,302a19.69,19.69,0,0,1,4.8,11,7.42,7.42,0,0,1,0,1.49,3.26,3.26,0,0,1-2.13,2.82,9.44,9.44,0,0,1-3.64.67H192.5Zm0-3.06c2.82,0,5.64,0,8.46,0,2,0,2.37-.4,2.13-2.4a14.29,14.29,0,0,0-7.14-10.92,6.65,6.65,0,0,0-1.84-.72,6.28,6.28,0,0,0-6.59,1.8,13.9,13.9,0,0,0-2.42,3.73,31.64,31.64,0,0,0-2.12,7.64c-.17,1-.11,1,.95,1C186.77,314.77,189.63,314.8,192.49,314.8Z"/><path class="cls-1" d="M57.13,340.68a18,18,0,0,1,.67-5.49,1.91,1.91,0,0,1,1.86-1.55c1.17-.05,2,.62,1.83,1.78-.09.65-.09,1.31-.21,2A14.39,14.39,0,0,0,62,345a7.72,7.72,0,0,0,2.09,3.19c2.9,2.62,5.7,2.52,8.58.1a6,6,0,0,0,1.76-6.89,12.09,12.09,0,0,0-.65-1.48,48.31,48.31,0,0,0-6.52-9.8c-1.8-2-3.65-4-5.47-5.95a37.11,37.11,0,0,1-5.67-7.68,17.4,17.4,0,0,1-1.79-4.75,14.6,14.6,0,0,1,4-13.49,10.43,10.43,0,0,1,11.31-2.85A14.42,14.42,0,0,1,79.73,306.1a7.59,7.59,0,0,1,.15,2.47c-.11,1.26-.61,1.85-1.64,2a2.47,2.47,0,0,1-2.8-1.34,13.93,13.93,0,0,1-.55-2A13,13,0,0,0,73,302.66a8.88,8.88,0,0,0-2.87-2.72,2.59,2.59,0,0,0-3.31.37,6.62,6.62,0,0,0-2.07,4.14,10.07,10.07,0,0,0,.11,3.46,21.4,21.4,0,0,0,4.82,9.95c1.53,1.81,3.17,3.51,4.83,5.19a80.6,80.6,0,0,1,6,6.82,23.58,23.58,0,0,1,2.33,3.52,12.28,12.28,0,0,1-.21,12.48c-3.21,5.47-8.13,8.35-14.56,8a10.76,10.76,0,0,1-9.56-6.71A14.88,14.88,0,0,1,57.13,340.68Z"/><path class="cls-1" d="M291.93,265c0,4.11,0,8.21,0,12.31,0,1.12.15,2.23.24,3.35a2.88,2.88,0,0,1-1.1,2.52,4.63,4.63,0,0,1-4.53,1A3.33,3.33,0,0,1,284,281q-.93-9.59-1.84-19.16-.45-4.71-.91-9.4c-.08-.87-.1-.89-1-.87-1.57,0-3.15.07-4.72.15-.93,0-.93.07-1.07,1-.66,4.3-1.3,8.6-2,12.89a54.86,54.86,0,0,1-2,8.59,18.33,18.33,0,0,1-2.46,5,7.91,7.91,0,0,1-9.25,3.3,17.67,17.67,0,0,1-8.07-4.93,29.66,29.66,0,0,1-6.55-10.74,54,54,0,0,1-3.48-22.68,35,35,0,0,1,3.19-12.7,16.16,16.16,0,0,1,3.36-4.89,11.38,11.38,0,0,1,15.38-.68c3.51,2.89,5.44,6.54,5.17,11.17a11,11,0,0,1-7.76,9.82,20,20,0,0,1-7.5.76c-1.69-.09-1.65-.09-1.59,1.62a72.29,72.29,0,0,0,5.15,23.56,15,15,0,0,0,2.92,4.87,7.8,7.8,0,0,0,2.25,1.75,2.22,2.22,0,0,0,2.93-.5,8.76,8.76,0,0,0,1.76-2.54,29,29,0,0,0,2.3-7.72c1.27-7.09,2.48-14.2,3.73-21.3a121.35,121.35,0,0,1,3.74-16.08,28.58,28.58,0,0,1,1.68-4.28,4.74,4.74,0,0,1,5.23-2.68,7.34,7.34,0,0,1,5,3,17,17,0,0,1,2.79,7.11,71.86,71.86,0,0,1,1,11.25c.06,2.07,0,2.07,2.11,2,1.45,0,2.9,0,4.35-.07.89,0,.93,0,.92-.9,0-1.21-.08-2.41-.12-3.61-.14-3.94,0-7.87.24-11.8a43.4,43.4,0,0,1,.63-5.8c.07-.33.15-.65.23-1a3.64,3.64,0,0,1,3.35-3,4.33,4.33,0,0,1,4.34,2.1,10.31,10.31,0,0,1,1.29,4.26,72.06,72.06,0,0,1,.13,12.29c-.1,2.15-.21,4.3-.29,6.45,0,.92,0,.94,1,.94,1.53,0,3.07-.07,4.6-.08a5.94,5.94,0,0,1,2.33.3,1.48,1.48,0,0,1,1.12,1.2c.07.71-.43,1.13-1,1.43a5.27,5.27,0,0,1-2.41.5c-1.54,0-3.07.08-4.6.1-1.28,0-1.1,0-1.2,1.18s-.08,2.15-.12,3.23c-.26,6.63-.37,13.26-.21,19.89,0,1.33.21,2.64.18,4a4,4,0,0,1-5.43,3.88,3.08,3.08,0,0,1-2.35-2.61c-.13-.86-.29-1.72-.35-2.58-.34-5.09-.7-10.17-1-15.25-.19-3.52-.23-7-.34-10.57,0-1.08,0-1.09-1.11-1.09-1.7,0-3.4,0-5.1.07-.94,0-1,0-.95,1,0,3.52.11,7,.16,10.56,0,.75,0,1.5,0,2.24Zm-38.42-20.43a15.23,15.23,0,0,0,3.09-.25c3.29-.57,5.76-2.23,6.87-5.52a9.34,9.34,0,0,0-2.93-10,3.71,3.71,0,0,0-5.75.61,10.51,10.51,0,0,0-1.68,3.3,39.8,39.8,0,0,0-1.48,6.64c-.22,1.43-.34,2.87-.52,4.31-.07.53.13.75.66.76S252.93,244.49,253.51,244.54Zm26.1-11.16-.3,0a76.83,76.83,0,0,0-4.08,15c1.82.08,3.5-.14,5.18-.22.49,0,.47-.34.44-.7q-.5-5.76-1-11.52C279.8,235.07,279.7,234.23,279.61,233.38Z"/><path class="cls-1" d="M160,262a2.11,2.11,0,0,0-.64,1.35q-1.44,4.95-3.06,9.84a22.56,22.56,0,0,1-1.46,3.56c-1.85,3.45-4.9,4.64-8.59,3.35a17.45,17.45,0,0,1-4.68-2.55,28.77,28.77,0,0,1-9.41-12.29A40.83,40.83,0,0,1,129.94,239a21,21,0,0,1,4.32-8.73,9.88,9.88,0,0,1,9.24-3.77,11.25,11.25,0,0,1,9.32,9.41,11.79,11.79,0,0,1-6.08,12.57,17,17,0,0,1-4.86,1.86c-.9.21-.89.22-.84,1.15A92.62,92.62,0,0,0,143.67,268a20.53,20.53,0,0,0,3.3,7.32,6.68,6.68,0,0,0,1.84,1.83,1.17,1.17,0,0,0,1.83-.31,7.91,7.91,0,0,0,1.15-2.19c.72-1.86,1.28-3.77,1.84-5.68,1.62-5.48,3.58-10.85,5.49-16.24a14.89,14.89,0,0,0,.42-4.54c0-.45-.28-.54-.65-.55l-2.86-.08a4.48,4.48,0,0,1-1.81-.38,1,1,0,0,1-.14-1.93,2.79,2.79,0,0,1,1.41-.44l3.1-.2c1,0,1.06,0,1.14-1.13.1-1.45.17-2.9.3-4.34a66,66,0,0,1,2-12.87,14.41,14.41,0,0,1,1.3-3.21,4.16,4.16,0,0,1,4.41-2.35A4.35,4.35,0,0,1,171.6,224a20.12,20.12,0,0,1,.83,5.39,109.88,109.88,0,0,1-.36,11.18c-.06.86-.07,1.74-.13,2.6,0,.55.18.75.72.7,1-.09,1.9-.14,2.85-.2a3.36,3.36,0,0,1,1.69.35,1.25,1.25,0,0,1,.16,2.28,3.33,3.33,0,0,1-1.63.57c-1,.1-2,.19-3,.26s-1.09,0-1.18,1.13c-.12,1.41-.21,2.81-.28,4.22-.3,6.25-.56,12.51-.51,18.77,0,2.48.1,5,.16,7.45a8.73,8.73,0,0,1-.15,2A4.15,4.15,0,0,1,167,284a3.93,3.93,0,0,1-4.44-2.79,32.94,32.94,0,0,1-1-5.49C160.86,271.21,160.37,266.68,160,262Zm-19-15.44a8.25,8.25,0,0,0,3.92-1.4,8.56,8.56,0,0,0,2.58-11,5.37,5.37,0,0,0-1.66-1.82c-.85-.56-1.18-.51-1.71.35a8.25,8.25,0,0,0-.76,1.55A47.08,47.08,0,0,0,141,246.56Z"/><path class="cls-1" d="M186.64,272.32c.07-1,.19-2,.21-3a2.22,2.22,0,0,1,3.07-1.78,1.46,1.46,0,0,1,1,1.46c.15,1.89.29,3.8.5,5.69a10.06,10.06,0,0,0,2.45,5.86,6.44,6.44,0,0,0,2.88,1.87,2.51,2.51,0,0,0,2.54-.53,6.57,6.57,0,0,0,1.82-2.63,13.53,13.53,0,0,0,.41-8.9,37.56,37.56,0,0,0-3.82-9.14c-1.21-2.13-2.52-4.19-3.91-6.21A53,53,0,0,1,189,246.9a21.12,21.12,0,0,1-2.1-9.25,12.74,12.74,0,0,1,10.75-12.33,13.07,13.07,0,0,1,8.61,1.73,14.31,14.31,0,0,1,7.09,11.88c.11,1.44-.36,2.09-1.47,2.37a2.28,2.28,0,0,1-2.76-1.53c-.38-.91-.68-1.86-1-2.8a11.09,11.09,0,0,0-3.36-4.84c-2.16-1.77-4-1.41-5.41,1a5.1,5.1,0,0,0-.69,2.24,15.73,15.73,0,0,0,.67,6.13,28.74,28.74,0,0,0,2.63,5.75c1.64,2.74,3.53,5.32,5.26,8a70.21,70.21,0,0,1,4,6.88c4,8.12.57,17.57-5.49,22.23a11.76,11.76,0,0,1-7.69,2.73,10.39,10.39,0,0,1-8.43-4.32,14.22,14.22,0,0,1-2.61-6.63A22.47,22.47,0,0,1,186.64,272.32Z"/><path class="cls-1" d="M114.33,246.18a92.76,92.76,0,0,1,1.42-15.8,22.64,22.64,0,0,1,2.31-6.79,5.22,5.22,0,0,1,6.46-2.58,4.85,4.85,0,0,1,3.66,4.64,22.17,22.17,0,0,1-.32,4.95c-.78,5.12-1.65,10.22-2.08,15.38-.16,1.86-.23,3.73-.34,5.59a110.59,110.59,0,0,0-.19,11.8,71.34,71.34,0,0,0,1.93,14.76,10.07,10.07,0,0,0,1,2.55c.49.83.8,1,1.74.8s1.68-.44,2.52-.66a4,4,0,0,1,2-.08,1.45,1.45,0,0,1,1.17,1,1.38,1.38,0,0,1-.58,1.41,2.15,2.15,0,0,1-.72.49,14.55,14.55,0,0,1-6.42,1.11,7.27,7.27,0,0,1-5.16-2.9,30.19,30.19,0,0,1-4-7.29,57.46,57.46,0,0,1-3.38-13.85A114.85,114.85,0,0,1,114.33,246.18Z"/><path class="cls-1" d="M183.24,231.44a19,19,0,0,1-.31,4.18,2.31,2.31,0,0,1-3.12,1.55,1.56,1.56,0,0,1-1.07-1.26,10.57,10.57,0,0,1-.26-2.45c.15-1.9.27-3.8.41-5.7a2,2,0,0,1,4-.4A23.22,23.22,0,0,1,183.24,231.44Z"/><path class="cls-1" d="M275.38,192.74c.74,4.89.59,5.7-.75,14.71a13.05,13.05,0,0,1-1.55,5c-1.24,2.57-10.92-2.33-43.54-2.56-20.45-.15-59,4.68-68.87,4.23a2.9,2.9,0,0,1-2.55-3.2c0-1.23-.92-3.07-1.83-12.09-.1-1-.08-2-.11-3l.12,0c.06.12.12.23.17.35a5.49,5.49,0,0,0,8,2.66c2.74-1.6,3.4-2.85,8-7.24,2.29-2.2,5.78-4,8.78-2.9,3.77,1.35,4.77,7.4,10.09,8.6,6.46,1.46,10.16-5.92,17.58-9.23,3.87-1.73,6.74-.55,9.24,2.86.49.66,1,1.33,1.43,2,2.57,3.75,6.05,6.4,10.41,5,6.24-2,10.22-10.2,18.56-7.49,7.21,2.35,8.9,8,15.52,9.82a7.72,7.72,0,0,0,8.08-2.12,11.41,11.41,0,0,0,3-5.09,2.14,2.14,0,0,1,.1-.22Z"/><path class="cls-2" d="M158,187.17a8.15,8.15,0,0,1,3-3.12c7.91-4,23.1-5.69,31.42-6.77s13.13-1,24.32-1a164.13,164.13,0,0,1,23.09,1.7c8.39,1.06,25,4.67,31.43,8.61a5.15,5.15,0,0,1,2.41,5.28,9.89,9.89,0,0,1-3.64,5.76c-3,2.4-7.48.62-10.18-1.72-3.89-3.37-6.6-6.12-11.39-7.43-10.75-2.93-15.82,10.63-22.8,7.49-3.92-1.77-4.63-5.14-7.66-8.09a8,8,0,0,0-8.74-1.93c-7.36,2.55-11.73,10.46-17.09,9.54-5.82-1-5.34-7.91-11.54-8.83a8.18,8.18,0,0,0-3.95.48c-6.08,2.13-9.93,10-14.37,10.68a3.81,3.81,0,0,1-3.78-1.8C156.87,193.23,157,188.75,158,187.17Z"/><path class="cls-2" d="M265.85,164.35a41.57,41.57,0,0,1-5,14.12c-1.94,3.53-5.72-1.78-26.57-4.31-6.28-.77-14.06-1.44-20.29-1-14.43,1-20.16,1.56-35.89,3.93-9.55,1.44-10.12,3.88-11.82,1.06-2.1-3.47-5.65-9.9-6.22-13.89,1.58,1.22,2.69,1.84,5.84.21,2.33-1.2,12.12-8.22,23.75-6.78,4.93.62,7.09,1.79,11.64,3.92,14.91,7,20.6-6.7,36.71-5,7.08.75,9.18,3.68,14.7,6.64,4.61,2.47,6.9,1.62,12.87,1A1.33,1.33,0,0,1,265.85,164.35Z"/><path class="cls-1" d="M266,162.56c-6,.32-7.49,1.47-11.4-.38-6.06-2.86-8-6.24-15.76-7.25-8-1.05-13.77,1.67-20.32,4.64-14.58,6.61-16.12-2.85-30-3.77-5.69-.37-13.2,1.19-20.63,5.69-3,1.79-3.33,2-4.75,2.37a1.8,1.8,0,0,1-1.48-.31c-.62-.41-1.76-1.58-1.73-2.07a4.5,4.5,0,0,1,.4-2c3.68-6.79,26.57-9.06,34.45-9.93,26.76-3,57.32,1.72,66.29,5.85,3.3,1.52,5.21,3.16,5,6.79A.72.72,0,0,1,266,162.56Z"/><path class="cls-1" d="M167.86,137.61c1.33,1.45,2.73,2.26,4.9,1.64,3.37-1,5.16-3.39,7.32-6.47.16.41.29.74.43,1.06a7,7,0,0,0,5.15,4.35c3.24.7,6.62-.46,9.34-4.85l.62-1a16.56,16.56,0,0,0,1.5,2.12c3,3.26,7.63,2,10.39-.74a24.41,24.41,0,0,0,3.1-3.88c.13.24.23.41.33.58,1.84,3.39,5.44,5.63,10,4.16a16.41,16.41,0,0,0,5.77-3.68c1,2.37,2.19,4.73,5,5.33,3.28.69,5-1.9,6.57-4.29,1.16,1.61,2.59,5,8.72,6.8a6.51,6.51,0,0,0,6.36-1.26l.41-.37A59.11,59.11,0,0,1,251,149.23c-1.25,3.56-4.45-1.79-32.17-3.2-7.1-.36-24.53.94-34.09,2.86-6.78,1.35-2.19.32-10.89,2.13-1,.21-1.45-.06-1.71-.49a75.44,75.44,0,0,1-4.35-12.87Z"/><path class="cls-2" d="M220.2,124c7.46.32,24.71,1.86,30.67,5.14a5.08,5.08,0,0,1,2.74,4.35c-1.28,6.69-10.9,3.44-13.74-2.44a5.38,5.38,0,0,0-.58-1,1.1,1.1,0,0,0-1.91,0c-1.28,1.7-3.35,6.48-6.85,3.67-1.54-1.23-2-3.25-2.39-4a1.31,1.31,0,0,0-2-.61c-.89.52-6,6-10.56,3.57a8.31,8.31,0,0,1-3.83-4.74,1.08,1.08,0,0,0-1.81-.23c-1.1,1.11-3.06,5.71-7.28,6.78-3.94,1-5.16-2.76-6-4a1.11,1.11,0,0,0-1.77-.2,14.45,14.45,0,0,0-1.73,2.51c-3.58,5.53-9.33,4.44-11.16.23-.18-.42-.59-1.64-.73-1.9a1.08,1.08,0,0,0-1.91-.19c-1.28,1.5-3.42,6.06-7.38,6.83-2.19.43-4.08-1.35-3.25-5.12.49-2.22.85-2.44,2.57-3.52,6.39-4,25.72-5,33.26-5.21C210.46,123.75,213.93,123.71,220.2,124Z"/><path class="cls-1" d="M181.45,100.65c2.09.06,2.23,1.69,2.77,3.83.72,2.91,3.71,15.24,3.79,17a1.56,1.56,0,0,1-1.21,1.77,27.49,27.49,0,0,1-4.36.77,2.18,2.18,0,0,1-2.39-1.4,130,130,0,0,1-4.35-17.12c-.36-2.29-.51-3.55,1.32-4.09A16.33,16.33,0,0,1,181.45,100.65Z"/><path class="cls-1" d="M203.29,98.25a2.12,2.12,0,0,1,1.75,2c.29,2.76.15,18.59-.07,19.77a1.56,1.56,0,0,1-1.58,1.44,26.48,26.48,0,0,1-4.42-.24,2.17,2.17,0,0,1-2-1.9,132,132,0,0,1-.36-17.66c.16-2.17.26-3.57,2.22-3.69A15.66,15.66,0,0,1,203.29,98.25Z"/><path class="cls-1" d="M216.49,98.28c-2,.58-1.74,2.19-1.72,4.4,0,1.24.15,15.38.56,17.37a1.57,1.57,0,0,0,1.62,1.41,27.9,27.9,0,0,0,4.41-.35,2.17,2.17,0,0,0,2-2c.38-3,.45-16.35-.34-19.62a1.86,1.86,0,0,0-2-1.68A15.62,15.62,0,0,0,216.49,98.28Z"/><path class="cls-1" d="M238.39,99.39c-2.1.09-2.21,1.73-2.7,3.87-.35,1.49-3.43,15-3.49,17a1.57,1.57,0,0,0,1.24,1.75,27.81,27.81,0,0,0,4.38.69,2.18,2.18,0,0,0,2.36-1.44c1-2.67,4.24-15.76,4.23-19.17a1.85,1.85,0,0,0-1.58-2.09A15.32,15.32,0,0,0,238.39,99.39Z"/><path class="cls-3" d="M173.17,83.34c.18-.68.37-1.35.57-2,.45-1.51,1.69-2,2.88-.4,1.65,2.18,4.35,6.51,4.2,9.37a3.58,3.58,0,0,1-2.88,3.57c-2.55.42-4.21-.56-5-2.09C172.47,90.77,172.4,86.31,173.17,83.34Z"/><path class="cls-3" d="M197.1,84.41a31,31,0,0,1,3.45-7.28,1.27,1.27,0,0,1,2.06,0c.76,1,2,4.66,2.51,7.52.72,4.29-1.52,6.28-3.7,6.14C197.67,90.59,196.21,87.85,197.1,84.41Z"/><path class="cls-3" d="M220.18,79.45a22.86,22.86,0,0,0-1.44-2.34c-.68-.75-1.82-.78-2.5.87-1.05,2.52-2.59,7.38-1.73,10.12a3.58,3.58,0,0,0,3.68,2.73c2.57-.23,3.94-1.59,4.29-3.26C223.06,84.84,221.67,82.14,220.18,79.45Z"/><path class="cls-3" d="M246.35,81.93a22.14,22.14,0,0,0-.86-2.62c-.48-.89-1.59-1.18-2.63.26-1.61,2.21-4.23,6.59-4,9.45a3.58,3.58,0,0,0,2.94,3.51c2.56.38,4.2-.64,4.93-2.17C247.18,89.34,247.17,84.89,246.35,81.93Z"/><path class="cls-4" d="M176.58,96.45c0-.56-.13-1.31.58-1.46s1,.49,1.11,1.15c.6,3.12.54,3.24.5,3.54-.12,1-1.5,1.17-1.79-.4-.18-.93-.32-1.88-.47-2.82Z"/><path class="cls-4" d="M199.5,93.05c.13-.54.17-1.3.9-1.29s.85.7.82,1.37c-.12,3.18-.21,3.28-.31,3.56-.36,1-1.73.78-1.66-.79,0-1,.12-1.9.19-2.86Z"/><path class="cls-4" d="M220.16,93c-.07-.25-.11-.5-.2-.74a.74.74,0,0,0-1.43,0c-.15.57-.13.74.15,3.75.14,1.46,1.4,1.5,1.67.62.22-.68.15-.73-.13-3.67Z"/><path class="cls-4" d="M243.18,95.09c0-.55.11-1.3-.61-1.44s-1,.51-1.09,1.16c-.54,3.14-.47,3.26-.43,3.55a.78.78,0,0,0,1.47.35c.37-.62.31-.69.73-3.61Z"/><path class="cls-5" d="M108,235.69l-30.37-9.21c-2-.6-2.83,2.5-.85,3.1l30.36,9.2C109.14,239.38,110,236.29,108,235.69Z"/><path class="cls-5" d="M105,251.06l-38.17,1c-2.06.05-2.07,3.26,0,3.21l38.17-1C107.09,254.22,107.1,251,105,251.06Z"/><path class="cls-5" d="M103.45,262.66,80.38,276.77c-1.76,1.08-.15,3.86,1.62,2.77l23.07-14.11C106.83,264.36,105.22,261.58,103.45,262.66Z"/><path class="cls-5" d="M324,235.69l30.37-9.21c2-.6,2.83,2.5.85,3.1l-30.36,9.2C322.86,239.38,322,236.29,324,235.69Z"/><path class="cls-5" d="M327,251.06l38.17,1c2.06.05,2.07,3.26,0,3.21l-38.17-1C324.91,254.22,324.9,251,327,251.06Z"/><path class="cls-5" d="M328.55,262.66l23.07,14.11c1.76,1.08.15,3.86-1.62,2.77l-23.07-14.11C325.17,264.36,326.78,261.58,328.55,262.66Z"/></svg>